# xmcd CD database file
#
# Track frame offsets:
#	150
#	13163
#	29806
#	49819
#	72023
#	83931
#	95925
#	109355
#	127671
#	142882
#	156434
#	167016
#	178802
#	196012
#	212239
#	237580
#	257704
#	280529
#
# Disc length: 3875 seconds
#
# Revision: 0
# Processed by: cddbd v1.5.1PL0 Copyright (c) Steve Scherf et al.
# Submitted via: CDex 1.51
#
DISCID=080f2112
DTITLE=salsa - salsa
DYEAR=1900
DGENRE=Salsa
TTITLE0=Track 1 - Joseito Fernandez - Guajira Guantanamera (Track 1)
TTITLE1=Track 2 - Carlos Puebla - Hasta Siempre (Track 2)
TTITLE2=Track 3 - Compay Segundo - Chan Chan (Track 3)
TTITLE3=Track 4 - Trova Santiaguera - Rico Vacilon (Track 4)
TTITLE4=Track 5 - Ñico Saquito - Maria Cristina (Track 5)
TTITLE5=Track 6 - Miguel Matamoros - Son De La Loma (Track 6)
TTITLE6=Track 7 - Orq. Aragón - El Bodeguero (Track 7)
TTITLE7=Track 8 - Eliades Ochoa - El Cuarto De Tula (Track 8)
TTITLE8=Track 9 - Ibrahim Ferrer - Mañana Me Voy A Sibanicú (Track 9)
TTITLE9=Track 10 - Pérez Prado y Su Orq - Mambo No 5 (Track 10)
TTITLE10=Track 11 - Omara Portuondo - Quizás, Quizás, Quizás (Track 11)
TTITLE11=Track 12 - Trio Los Audaces - Besame Mucho (Track 12)
TTITLE12=Track 13 - Polo Montañez - Guajiro Natural (Track 13)
TTITLE13=Track 14 - Celina Gonzalez - Lagrimas Negras (Track 14)
TTITLE14=Track 15 - Laito - Idilio (Track 15)
TTITLE15=Track 16 - Laito Jr - El Cafetal (Track 16)
TTITLE16=Track 17 - Issac Delgado - La Vida Es Un Carnaval (Track 17)
TTITLE17=Track 18 - Ramón Veloz - Cuba Que Linda Es Cuba (Track 18)
EXTD=
EXTT0=
EXTT1=
EXTT2=
EXTT3=
EXTT4=
EXTT5=
EXTT6=
EXTT7=
EXTT8=
EXTT9=
EXTT10=
EXTT11=
EXTT12=
EXTT13=
EXTT14=
EXTT15=
EXTT16=
EXTT17=
PLAYORDER=
